<svg width="17" height="16" viewBox="0 0 17 16" fill="none" xmlns="http://www.w3.org/2000/svg">
<g clip-path="url(#clip0_5_13)">
<path d="M16.991 3.56953C17.0077 3.47412 16.9934 3.37625 16.9498 3.28842C16.816 2.74312 16.3907 2.46175 15.6719 2.46175H1.85944C1.22725 2.46175 0.546169 2.67715 0.211233 3.09983C0.182263 3.12026 0.154638 3.1434 0.129686 3.17024C0.0226226 3.28471 -0.0148306 3.43194 0.00909229 3.57078C0.00431104 3.61066 6.10352e-05 3.65079 6.10352e-05 3.69264V11.5702C6.10352e-05 12.3861 0.979421 13.2935 1.85944 13.2935H15.6719C16.5522 13.2935 17.0001 12.3861 17.0001 11.5702V3.69264C17.0001 3.64906 16.994 3.61089 16.991 3.56953H16.991ZM1.85937 3.44645L15.6719 3.44643H15.6791L8.50001 8.74928L1.34992 3.46809C1.51248 3.44028 1.7125 3.44645 1.85935 3.44645H1.85937ZM15.6719 12.3087H1.8594C1.56642 12.3087 1.06253 11.842 1.06253 11.5702V4.51655L8.15206 9.77312C8.25194 9.85313 8.37597 9.89301 8.50001 9.89301C8.62786 9.89313 8.75148 9.85057 8.84825 9.77312L15.9375 4.5168V11.5702C15.9375 11.842 15.9651 12.3087 15.6719 12.3087Z" fill="black" fill-opacity="0.7"/>
</g>
<defs>
<clipPath id="clip0_5_13">
<rect width="17" height="15.7552" fill="white"/>
</clipPath>
</defs>
</svg>
